<svg width="0" height="0" class="hidden">
  <symbol fill="none" xmlns="http://www.w3.org/2000/svg" viewBox="0 0 20 20" id="calendar">
    <path d="M15.8333 3.33333H4.16667C3.24619 3.33333 2.5 4.07952 2.5 4.99999V16.6667C2.5 17.5871 3.24619 18.3333 4.16667 18.3333H15.8333C16.7538 18.3333 17.5 17.5871 17.5 16.6667V4.99999C17.5 4.07952 16.7538 3.33333 15.8333 3.33333Z" stroke="#262626" stroke-width="1.8" stroke-linecap="round" stroke-linejoin="round"></path>
    <path d="M13.333 1.66667V5" stroke="#262626" stroke-width="1.8" stroke-linecap="round" stroke-linejoin="round"></path>
    <path d="M6.66699 1.66667V5" stroke="#262626" stroke-width="1.8" stroke-linecap="round" stroke-linejoin="round"></path>
    <path d="M2.5 8.33333H17.5" stroke="#262626" stroke-width="1.8" stroke-linecap="round" stroke-linejoin="round"></path>
  </symbol>
  <symbol fill="none" xmlns="http://www.w3.org/2000/svg" viewBox="0 0 32 32" id="cat">
    <path d="M0 32H32V1.90735e-06H0V32Z" fill="white"></path>
  </symbol>
  <symbol fill="none" xmlns="http://www.w3.org/2000/svg" viewBox="0 0 22 22" id="check">
    <path d="M18.3337 6.41667L8.25042 16.5L3.66699 11.9167" stroke="#08AA83" stroke-width="1.5" stroke-linecap="round" stroke-linejoin="round"></path>
  </symbol>
  <symbol fill="none" xmlns="http://www.w3.org/2000/svg" viewBox="0 0 18 18" id="chevron-down">
    <path d="M4.5 6.75L9 11.25L13.5 6.75" stroke="#262626" stroke-width="2" stroke-linecap="round" stroke-linejoin="round"></path>
  </symbol>
  <symbol fill="none" xmlns="http://www.w3.org/2000/svg" viewBox="0 0 22 22" id="cross-small">
    <path d="M17.4163 4.58333L4.58301 17.4167M4.58305 4.58333L17.4163 17.4167" stroke="#EF2447" stroke-width="2" stroke-linecap="round" stroke-linejoin="round"></path>
  </symbol>
  <symbol fill="none" xmlns="http://www.w3.org/2000/svg" viewBox="0 0 32 32" id="dog">
    <path d="M0 32H32V1.90735e-06H0V32Z" fill="white"></path>
  </symbol>
  <symbol fill="none" xmlns="http://www.w3.org/2000/svg" viewBox="0 0 24 24" id="double-chevron">
    <path d="M10.5999 12.71C10.5061 12.6171 10.4317 12.5065 10.381 12.3846C10.3302 12.2628 10.3041 12.1321 10.3041 12C10.3041 11.868 10.3302 11.7373 10.381 11.6155C10.4317 11.4936 10.5061 11.383 10.5999 11.29L15.1899 6.71003C15.2836 6.61707 15.358 6.50647 15.4088 6.38461C15.4595 6.26275 15.4857 6.13204 15.4857 6.00003C15.4857 5.86802 15.4595 5.73731 15.4088 5.61545C15.358 5.49359 15.2836 5.38299 15.1899 5.29003C15.0025 5.10378 14.749 4.99924 14.4849 4.99924C14.2207 4.99924 13.9672 5.10378 13.7799 5.29003L9.18986 9.88004C8.62806 10.4425 8.3125 11.205 8.3125 12C8.3125 12.795 8.62806 13.5575 9.18986 14.12L13.7799 18.7101C13.9661 18.8948 14.2175 18.999 14.4799 19.0001C14.6115 19.0008 14.7419 18.9756 14.8638 18.9258C14.9856 18.8761 15.0964 18.8027 15.1899 18.7101C15.2836 18.6171 15.358 18.5065 15.4088 18.3846C15.4595 18.2628 15.4857 18.1321 15.4857 18.0001C15.4857 17.868 15.4595 17.7373 15.4088 17.6155C15.358 17.4936 15.2836 17.383 15.1899 17.2901L10.5999 12.71Z" fill="#262626" fill-opacity="0.5"></path>
  </symbol>
  <symbol fill="none" xmlns="http://www.w3.org/2000/svg" viewBox="0 0 22 22" id="eye">
    <g clip-path="url(#clip0_55848_2020)">
      <path d="M0.916016 11C0.916016 11 4.58268 3.66667 10.9993 3.66667C17.416 3.66667 21.0827 11 21.0827 11C21.0827 11 17.416 18.3333 10.9993 18.3333C4.58268 18.3333 0.916016 11 0.916016 11Z" stroke="#F6B83D" stroke-width="2" stroke-linecap="round" stroke-linejoin="round"></path>
      <path d="M11 13.75C12.5188 13.75 13.75 12.5188 13.75 11C13.75 9.48122 12.5188 8.25 11 8.25C9.48122 8.25 8.25 9.48122 8.25 11C8.25 12.5188 9.48122 13.75 11 13.75Z" stroke="#F6B83D" stroke-width="2" stroke-linecap="round" stroke-linejoin="round"></path>
    </g>
    <defs>
      <clipPath id="clip0_55848_2020">
        <rect width="22" height="22" fill="white"></rect>
      </clipPath>
    </defs>
  </symbol>
  <symbol fill="none" xmlns="http://www.w3.org/2000/svg" viewBox="0 0 22 22" id="eye-off">
    <g clip-path="url(#clip0_55848_2014)">
      <path d="M16.4463 16.445C14.8793 17.6394 12.9713 18.3011 11.0013 18.3333C4.58464 18.3333 0.917969 11 0.917969 11C2.0582 8.87507 3.63968 7.01855 5.5563 5.555M9.0763 3.88666C9.70727 3.73897 10.3533 3.66514 11.0013 3.66666C17.418 3.66666 21.0846 11 21.0846 11C20.5282 12.041 19.8646 13.021 19.1046 13.9242M12.9446 12.9433C12.6929 13.2135 12.3893 13.4302 12.0519 13.5805C11.7146 13.7308 11.3505 13.8117 10.9812 13.8182C10.612 13.8247 10.2452 13.7568 9.90278 13.6184C9.56036 13.4801 9.2493 13.2743 8.98816 13.0131C8.72703 12.752 8.52116 12.4409 8.38285 12.0985C8.24454 11.7561 8.17662 11.3893 8.18313 11.0201C8.18965 10.6508 8.27047 10.2867 8.42077 9.94936C8.57108 9.61203 8.78778 9.30843 9.05797 9.05666" stroke="#F6B83D" stroke-width="2" stroke-linecap="round" stroke-linejoin="round"></path>
      <path d="M0.917969 0.916672L21.0846 21.0833" stroke="#F6B83D" stroke-width="2" stroke-linecap="round" stroke-linejoin="round"></path>
    </g>
    <defs>
      <clipPath id="clip0_55848_2014">
        <rect width="22" height="22" fill="white"></rect>
      </clipPath>
    </defs>
  </symbol>
  <symbol fill="none" xmlns="http://www.w3.org/2000/svg" viewBox="0 0 24 24" id="female">
    <path d="M12 13C14.7614 13 17 10.7614 17 8C17 5.23858 14.7614 3 12 3C9.23858 3 7 5.23858 7 8C7 10.7614 9.23858 13 12 13ZM12 13L12 21M9 18L15 18" stroke="#F43F5E" stroke-width="1.5" stroke-linecap="round" stroke-linejoin="round"></path>
  </symbol>
  <symbol fill="none" xmlns="http://www.w3.org/2000/svg" viewBox="0 0 44 44" id="footprint">
    <path d="M17.1875 6.875C15.7162 6.875 14.4348 7.711 13.6208 8.85225C12.8068 9.9935 12.375 11.4675 12.375 13.0625C12.375 14.6575 12.8068 16.1329 13.6208 17.2741C14.4348 18.4154 15.7162 19.25 17.1875 19.25C18.6588 19.25 19.9402 18.414 20.7542 17.2728C21.5683 16.1315 22 14.6575 22 13.0625C22 11.4675 21.5683 9.99213 20.7542 8.85087C19.9402 7.70962 18.6588 6.875 17.1875 6.875ZM22 13.0625C22 14.6575 22.4317 16.1329 23.2458 17.2741C24.0597 18.4154 25.3426 19.25 26.8125 19.25C28.2838 19.25 29.5653 18.414 30.3792 17.2728C31.1933 16.1315 31.625 14.6575 31.625 13.0625C31.625 11.4675 31.1933 9.99213 30.3792 8.85087C29.5653 7.70962 28.2838 6.875 26.8125 6.875C25.3412 6.875 24.0597 7.711 23.2458 8.85225C22.4317 9.9935 22 11.4675 22 13.0625ZM17.1875 9.625C17.6165 9.625 18.0895 9.8395 18.5213 10.4418C18.9475 11.0426 19.25 11.9996 19.25 13.0625C19.25 14.1254 18.9475 15.0838 18.5213 15.6833C18.0895 16.2855 17.6165 16.5 17.1875 16.5C16.7585 16.5 16.2855 16.2855 15.8537 15.6833C15.4275 15.0824 15.125 14.1254 15.125 13.0625C15.125 11.9996 15.4275 11.0413 15.8537 10.4418C16.2855 9.8395 16.7585 9.625 17.1875 9.625ZM26.8125 9.625C27.2415 9.625 27.7145 9.8395 28.1462 10.4418C28.5725 11.0426 28.875 11.9996 28.875 13.0625C28.875 14.1254 28.5725 15.0838 28.1462 15.6833C27.7145 16.2855 27.2415 16.5 26.8125 16.5C26.3835 16.5 25.9105 16.2855 25.4788 15.6833C25.0525 15.0824 24.75 14.1254 24.75 13.0625C24.75 11.9996 25.0525 11.0413 25.4788 10.4418C25.9105 9.8395 26.3835 9.625 26.8125 9.625ZM10.3125 16.5C8.84125 16.5 7.55975 17.336 6.74575 18.4773C5.93175 19.6185 5.5 21.0925 5.5 22.6875C5.5 24.2825 5.93175 25.7579 6.74575 26.8991C7.55975 28.0404 8.84125 28.875 10.3125 28.875C11.7838 28.875 13.0652 28.039 13.8792 26.8978C14.6932 25.7565 15.125 24.2825 15.125 22.6875C15.125 21.0925 14.6932 19.6171 13.8792 18.4759C13.0652 17.3346 11.7838 16.5 10.3125 16.5ZM33.6875 16.5C32.2162 16.5 30.9347 17.336 30.1208 18.4773C29.3067 19.6185 28.875 21.0925 28.875 22.6875C28.875 24.2825 29.3067 25.7579 30.1208 26.8991C30.9347 28.0404 32.2162 28.875 33.6875 28.875C35.1588 28.875 36.4403 28.039 37.2542 26.8978C38.0682 25.7565 38.5 24.2825 38.5 22.6875C38.5 21.0925 38.0682 19.6171 37.2542 18.4759C36.4403 17.3346 35.1588 16.5 33.6875 16.5ZM10.3125 19.25C10.7415 19.25 11.2145 19.4645 11.6463 20.0668C12.0725 20.6676 12.375 21.6246 12.375 22.6875C12.375 23.7504 12.0725 24.7088 11.6463 25.3083C11.2145 25.9105 10.7415 26.125 10.3125 26.125C9.8835 26.125 9.4105 25.9105 8.97875 25.3083C8.5525 24.7088 8.25 23.7504 8.25 22.6875C8.25 21.6246 8.5525 20.6663 8.97875 20.0668C9.4105 19.4645 9.8835 19.25 10.3125 19.25ZM33.6875 19.25C34.1165 19.25 34.5895 19.4645 35.0212 20.0668C35.4475 20.6676 35.75 21.6246 35.75 22.6875C35.75 23.7504 35.4475 24.7088 35.0212 25.3083C34.5895 25.9105 34.1165 26.125 33.6875 26.125C33.2585 26.125 32.7855 25.9105 32.3538 25.3083C31.9275 24.7074 31.625 23.7504 31.625 22.6875C31.625 21.6246 31.9275 20.6663 32.3538 20.0668C32.7855 19.4645 33.2585 19.25 33.6875 19.25ZM22 22C20.1671 22 18.8884 23.1894 18.26 24.2344C17.6357 25.2794 17.2507 26.1484 16.885 26.5114C16.6746 26.7273 15.3478 27.2264 13.9645 27.9318C13.2729 28.2851 12.5757 28.7568 11.9886 29.4786C11.3974 30.2005 10.9986 31.1974 10.9986 32.3153C10.9986 34.9553 13.1711 37.1278 15.8111 37.1278C17.0019 37.1278 18.2449 36.7428 19.4618 36.399C20.6841 36.047 22 35.75 22 35.75C22 35.75 23.3159 36.047 24.5355 36.3963C25.7537 36.74 26.9967 37.125 28.1875 37.125C30.8275 37.125 33 34.9525 33 32.3125C33 31.2208 32.5971 30.2225 32.01 29.5213C31.4256 28.8159 30.7216 28.38 30.0355 28.0156C28.6605 27.2869 27.3089 26.7094 27.1136 26.5114C26.7836 26.1855 26.4124 25.2876 25.7799 24.2371C25.1488 23.1825 23.8425 22 22 22ZM22 24.75C22.9075 24.75 23.0079 24.97 23.4163 25.652C23.8288 26.3326 24.1368 27.489 25.135 28.4886C26.2694 29.6161 27.7021 29.8636 28.7458 30.4191C29.2682 30.6969 29.667 30.9925 29.9062 31.2785C30.1441 31.5631 30.25 31.823 30.25 32.3098C30.25 33.4648 29.3425 34.3723 28.1875 34.3723C27.7887 34.3723 26.5045 34.0698 25.3083 33.726C24.112 33.3864 23.122 32.9973 22 32.9973C20.878 32.9973 19.888 33.3864 18.6917 33.726C17.4955 34.0698 16.2113 34.3723 15.8125 34.3723C14.6575 34.3723 13.75 33.4648 13.75 32.3098C13.75 31.7556 13.8655 31.471 14.0938 31.1905C14.322 30.9114 14.7428 30.635 15.2542 30.3751C16.2773 29.8526 17.7017 29.6464 18.8636 28.4845C19.8715 27.4711 20.174 26.2776 20.5824 25.6039C20.9839 24.9301 21.0801 24.7445 21.9986 24.7445L22 24.75Z" fill="#F6B83D"></path>
  </symbol>
  <symbol fill="none" xmlns="http://www.w3.org/2000/svg" viewBox="0 0 105 32" id="logo">
    <path d="M9.226 25.42C7.75133 25.42 6.51467 25.07 5.516 24.37C4.51733 23.67 3.766 22.718 3.262 21.514C2.758 20.3007 2.506 18.9427 2.506 17.44C2.506 15.9187 2.758 14.556 3.262 13.352C3.766 12.148 4.50333 11.2007 5.474 10.51C6.454 9.81 7.66267 9.46 9.1 9.46C10.528 9.46 11.7647 9.81 12.81 10.51C13.8647 11.2007 14.6813 12.148 15.26 13.352C15.8387 14.5467 16.128 15.9093 16.128 17.44C16.128 18.952 15.8433 20.31 15.274 21.514C14.7047 22.718 13.902 23.67 12.866 24.37C11.83 25.07 10.6167 25.42 9.226 25.42ZM1.932 31.72V9.88H4.914V20.492H5.334V31.72H1.932ZM8.708 22.396C9.58533 22.396 10.3087 22.1767 10.878 21.738C11.4473 21.2993 11.8673 20.7067 12.138 19.96C12.418 19.204 12.558 18.364 12.558 17.44C12.558 16.5253 12.418 15.6947 12.138 14.948C11.858 14.192 11.424 13.5947 10.836 13.156C10.248 12.708 9.50133 12.484 8.596 12.484C7.73733 12.484 7.03733 12.694 6.496 13.114C5.95467 13.5247 5.55333 14.1033 5.292 14.85C5.04 15.5873 4.914 16.4507 4.914 17.44C4.914 18.42 5.04 19.2833 5.292 20.03C5.55333 20.7767 5.95933 21.36 6.51 21.78C7.07 22.1907 7.80267 22.396 8.708 22.396ZM24.9679 25.42C23.4372 25.42 22.0932 25.0887 20.9359 24.426C19.7786 23.7633 18.8732 22.844 18.2199 21.668C17.5759 20.492 17.2539 19.1387 17.2539 17.608C17.2539 15.956 17.5712 14.5233 18.2059 13.31C18.8406 12.0873 19.7226 11.14 20.8519 10.468C21.9812 9.796 23.2879 9.46 24.7719 9.46C26.3399 9.46 27.6699 9.82867 28.7619 10.566C29.8632 11.294 30.6799 12.3253 31.2119 13.66C31.7439 14.9947 31.9446 16.5673 31.8139 18.378H28.4679V17.146C28.4586 15.5033 28.1692 14.304 27.5999 13.548C27.0306 12.792 26.1346 12.414 24.9119 12.414C23.5306 12.414 22.5039 12.8433 21.8319 13.702C21.1599 14.5513 20.8239 15.7973 20.8239 17.44C20.8239 18.9707 21.1599 20.156 21.8319 20.996C22.5039 21.836 23.4839 22.256 24.7719 22.256C25.6026 22.256 26.3166 22.074 26.9139 21.71C27.5206 21.3367 27.9872 20.8 28.3139 20.1L31.6459 21.108C31.0672 22.4707 30.1712 23.53 28.9579 24.286C27.7539 25.042 26.4239 25.42 24.9679 25.42ZM19.7599 18.378V15.83H30.1619V18.378H19.7599ZM42.6797 25C41.681 25.1867 40.701 25.266 39.7397 25.238C38.7877 25.2193 37.9337 25.0467 37.1777 24.72C36.4217 24.384 35.8477 23.8567 35.4557 23.138C35.1103 22.4847 34.9283 21.8173 34.9097 21.136C34.891 20.4547 34.8817 19.6847 34.8817 18.826V5.68H38.2417V18.63C38.2417 19.2367 38.2463 19.7687 38.2557 20.226C38.2743 20.6833 38.3723 21.0567 38.5497 21.346C38.8857 21.906 39.4223 22.2187 40.1597 22.284C40.897 22.3493 41.737 22.312 42.6797 22.172V25ZM32.1377 12.526V9.88H42.6797V12.526H32.1377ZM45.0909 25V4.42H48.4649V25H45.0909Z" fill="#262626"></path>
    <path fill-rule="evenodd" clip-rule="evenodd" d="M62.4935 10.4345C60.6541 8.26268 57.5868 7.67848 55.2821 9.66718C52.9775 11.6559 52.653 14.9809 54.4629 17.333C55.6221 18.8395 58.5909 21.6331 60.5756 23.447C61.2351 24.0498 61.5649 24.3512 61.9599 24.4721C62.2995 24.576 62.6875 24.576 63.0271 24.4721C63.4221 24.3512 63.7519 24.0498 64.4114 23.447C66.3961 21.6331 69.3649 18.8395 70.5241 17.333C72.334 14.9809 72.0491 11.635 69.7049 9.66718C67.3606 7.6994 64.3329 8.26268 62.4935 10.4345Z" fill="#F6B83D"></path>
    <path d="M80.048 25L74.56 9.88H77.934L81.742 20.842L85.536 9.88H88.924L83.436 25H80.048ZM96.6437 25.42C95.113 25.42 93.769 25.0887 92.6117 24.426C91.4544 23.7633 90.549 22.844 89.8957 21.668C89.2517 20.492 88.9297 19.1387 88.9297 17.608C88.9297 15.956 89.247 14.5233 89.8817 13.31C90.5164 12.0873 91.3984 11.14 92.5277 10.468C93.657 9.796 94.9637 9.46 96.4477 9.46C98.0157 9.46 99.3457 9.82867 100.438 10.566C101.539 11.294 102.356 12.3253 102.888 13.66C103.42 14.9947 103.62 16.5673 103.49 18.378H100.144V17.146C100.134 15.5033 99.845 14.304 99.2757 13.548C98.7064 12.792 97.8104 12.414 96.5877 12.414C95.2064 12.414 94.1797 12.8433 93.5077 13.702C92.8357 14.5513 92.4997 15.7973 92.4997 17.44C92.4997 18.9707 92.8357 20.156 93.5077 20.996C94.1797 21.836 95.1597 22.256 96.4477 22.256C97.2784 22.256 97.9924 22.074 98.5897 21.71C99.1964 21.3367 99.663 20.8 99.9897 20.1L103.322 21.108C102.743 22.4707 101.847 23.53 100.634 24.286C99.4297 25.042 98.0997 25.42 96.6437 25.42ZM91.4357 18.378V15.83H101.838V18.378H91.4357Z" fill="#262626"></path>
  </symbol>
  <symbol fill="none" xmlns="http://www.w3.org/2000/svg" viewBox="0 0 106 32" id="logo-white">
    <path d="M9.38 25.42C7.87733 25.42 6.622 25.07 5.614 24.37C4.606 23.67 3.84533 22.718 3.332 21.514C2.828 20.31 2.576 18.952 2.576 17.44C2.576 15.928 2.828 14.57 3.332 13.366C3.836 12.162 4.578 11.21 5.558 10.51C6.538 9.81 7.74667 9.46 9.184 9.46C10.6307 9.46 11.8907 9.80533 12.964 10.496C14.0373 11.1867 14.868 12.134 15.456 13.338C16.0533 14.5327 16.352 15.9 16.352 17.44C16.352 18.952 16.058 20.31 15.47 21.514C14.8913 22.718 14.0793 23.67 13.034 24.37C11.9887 25.07 10.7707 25.42 9.38 25.42ZM1.932 31.72V9.88H5.292V20.24H5.768V31.72H1.932ZM8.764 22.032C9.58533 22.032 10.2573 21.8267 10.78 21.416C11.3027 21.0053 11.69 20.4547 11.942 19.764C12.194 19.064 12.32 18.2893 12.32 17.44C12.32 16.6 12.1893 15.8347 11.928 15.144C11.6667 14.444 11.2607 13.8887 10.71 13.478C10.1687 13.058 9.47333 12.848 8.624 12.848C7.83067 12.848 7.18667 13.0393 6.692 13.422C6.20667 13.8047 5.852 14.3413 5.628 15.032C5.404 15.7227 5.292 16.5253 5.292 17.44C5.292 18.3547 5.404 19.1573 5.628 19.848C5.852 20.5387 6.216 21.0753 6.72 21.458C7.23333 21.8407 7.91467 22.032 8.764 22.032ZM25.3407 25.42C23.7913 25.42 22.424 25.0887 21.2387 24.426C20.0627 23.754 19.1387 22.8347 18.4667 21.668C17.804 20.492 17.4727 19.148 17.4727 17.636C17.4727 15.984 17.7993 14.5467 18.4527 13.324C19.106 12.1013 20.0067 11.154 21.1547 10.482C22.3027 9.80067 23.6233 9.46 25.1167 9.46C26.7033 9.46 28.052 9.83333 29.1627 10.58C30.2733 11.3267 31.0947 12.3767 31.6267 13.73C32.1587 15.0833 32.3453 16.6747 32.1867 18.504H28.4207V17.104C28.4207 15.564 28.1733 14.458 27.6787 13.786C27.1933 13.1047 26.3953 12.764 25.2847 12.764C23.9873 12.764 23.0307 13.1607 22.4147 13.954C21.808 14.738 21.5047 15.9 21.5047 17.44C21.5047 18.8493 21.808 19.9413 22.4147 20.716C23.0307 21.4813 23.9313 21.864 25.1167 21.864C25.8633 21.864 26.5027 21.7007 27.0347 21.374C27.5667 21.0473 27.9727 20.576 28.2527 19.96L32.0607 21.052C31.4913 22.4333 30.5907 23.5067 29.3587 24.272C28.136 25.0373 26.7967 25.42 25.3407 25.42ZM20.3287 18.504V15.676H30.3527V18.504H20.3287ZM43.2998 25C42.2545 25.196 41.2278 25.28 40.2198 25.252C39.2211 25.2333 38.3251 25.0607 37.5318 24.734C36.7478 24.398 36.1505 23.8613 35.7398 23.124C35.3665 22.4333 35.1705 21.7333 35.1518 21.024C35.1331 20.3053 35.1238 19.4933 35.1238 18.588V5.68H38.9318V18.364C38.9318 18.952 38.9365 19.484 38.9458 19.96C38.9645 20.4267 39.0625 20.8 39.2398 21.08C39.5758 21.612 40.1125 21.9013 40.8498 21.948C41.5871 21.9947 42.4038 21.9573 43.2998 21.836V25ZM32.5478 12.82V9.88H43.2998V12.82H32.5478ZM45.8292 25V4.42H49.6372V25H45.8292Z" fill="white"></path>
    <path fill-rule="evenodd" clip-rule="evenodd" d="M63.4935 10.4345C61.6541 8.26268 58.5868 7.67848 56.2821 9.66718C53.9775 11.6559 53.653 14.9809 55.4629 17.333C56.6221 18.8395 59.5909 21.6331 61.5756 23.447C62.2351 24.0498 62.5649 24.3512 62.9599 24.4721C63.2995 24.576 63.6875 24.576 64.0271 24.4721C64.4221 24.3512 64.7519 24.0498 65.4114 23.447C67.3961 21.6331 70.3649 18.8395 71.5241 17.333C73.334 14.9809 73.0491 11.635 70.7049 9.66718C68.3606 7.6994 65.3329 8.26268 63.4935 10.4345Z" fill="white"></path>
    <path d="M81.048 25L75.56 9.88H78.934L82.742 20.842L86.536 9.88H89.924L84.436 25H81.048ZM97.6437 25.42C96.113 25.42 94.769 25.0887 93.6117 24.426C92.4544 23.7633 91.549 22.844 90.8957 21.668C90.2517 20.492 89.9297 19.1387 89.9297 17.608C89.9297 15.956 90.247 14.5233 90.8817 13.31C91.5164 12.0873 92.3984 11.14 93.5277 10.468C94.657 9.796 95.9637 9.46 97.4477 9.46C99.0157 9.46 100.346 9.82867 101.438 10.566C102.539 11.294 103.356 12.3253 103.888 13.66C104.42 14.9947 104.62 16.5673 104.49 18.378H101.144V17.146C101.134 15.5033 100.845 14.304 100.276 13.548C99.7064 12.792 98.8104 12.414 97.5877 12.414C96.2064 12.414 95.1797 12.8433 94.5077 13.702C93.8357 14.5513 93.4997 15.7973 93.4997 17.44C93.4997 18.9707 93.8357 20.156 94.5077 20.996C95.1797 21.836 96.1597 22.256 97.4477 22.256C98.2784 22.256 98.9924 22.074 99.5897 21.71C100.196 21.3367 100.663 20.8 100.99 20.1L104.322 21.108C103.743 22.4707 102.847 23.53 101.634 24.286C100.43 25.042 99.0997 25.42 97.6437 25.42ZM92.4357 18.378V15.83H102.838V18.378H92.4357Z" fill="white"></path>
  </symbol>
  <symbol fill="none" xmlns="http://www.w3.org/2000/svg" viewBox="0 0 24 24" id="male">
    <path d="M12 11C9.23858 11 7 13.2386 7 16C7 18.7614 9.23858 21 12 21C14.7614 21 17 18.7614 17 16C17 13.2386 14.7614 11 12 11ZM12 11V3M12 3L16 7M12 3L8 7" stroke="#54ADFF" stroke-width="1.5" stroke-linecap="round" stroke-linejoin="round"></path>
  </symbol>
  <symbol fill="none" xmlns="http://www.w3.org/2000/svg" viewBox="0 0 18 16" id="male-female">
    <path fill-rule="evenodd" clip-rule="evenodd" d="M5.77074 3.74498C5.05311 3.46474 4.26305 3.42921 3.52317 3.6439C2.78328 3.85859 2.13495 4.31149 1.67878 4.93232C1.22261 5.55315 0.984114 6.30719 1.00031 7.07742C1.0165 7.84766 1.28647 8.59101 1.76833 9.19212C2.25019 9.79323 2.91699 10.2185 3.66524 10.4019C4.41349 10.5853 5.20136 10.5166 5.90658 10.2064C6.61179 9.89628 7.19491 9.36203 7.56545 8.68659C7.93599 8.01115 8.07322 7.23228 7.95585 6.47087C7.94587 6.40599 7.94877 6.33979 7.96439 6.27603C7.98 6.21227 8.00801 6.15221 8.04683 6.09928C8.08566 6.04635 8.13452 6.00158 8.19065 5.96753C8.24677 5.93349 8.30905 5.91083 8.37393 5.90086C8.43881 5.89088 8.50502 5.89378 8.56878 5.90939C8.63253 5.925 8.6926 5.95302 8.74553 5.99184C8.79846 6.03066 8.84322 6.07953 8.87727 6.13565C8.91131 6.19178 8.93397 6.25406 8.94395 6.31893C9.09469 7.29787 8.91811 8.29919 8.4416 9.16751C7.9651 10.0358 7.21533 10.7226 6.30862 11.1213C5.40192 11.5199 4.38899 11.6081 3.42701 11.3723C2.46503 11.1364 1.6078 10.5896 0.988328 9.81679C0.36886 9.04394 0.0217963 8.08824 0.000992872 7.09798C-0.0198106 6.10773 0.286809 5.1383 0.873273 4.34011C1.45974 3.54193 2.29325 2.95963 3.24448 2.68358C4.1957 2.40752 5.21144 2.45314 6.13409 2.81336C6.19607 2.8366 6.25281 2.87193 6.30102 2.91728C6.34923 2.96263 6.38796 3.01711 6.41495 3.07755C6.44194 3.13798 6.45665 3.20318 6.45824 3.26936C6.45982 3.33553 6.44825 3.40136 6.42418 3.46302C6.40012 3.52468 6.36405 3.58095 6.31806 3.62856C6.27208 3.67617 6.21709 3.71417 6.1563 3.74035C6.09551 3.76654 6.03012 3.78039 5.96393 3.7811C5.89775 3.7818 5.83208 3.76986 5.77074 3.74498Z" fill="#F6B83D"></path>
    <path fill-rule="evenodd" clip-rule="evenodd" d="M3.99805 15.5002V11.5018C3.99805 11.3693 4.0507 11.2421 4.14443 11.1484C4.23816 11.0547 4.36529 11.002 4.49784 11.002C4.6304 11.002 4.75752 11.0547 4.85125 11.1484C4.94498 11.2421 4.99764 11.3693 4.99764 11.5018V15.5002C4.99764 15.6328 4.94498 15.7599 4.85125 15.8536C4.75752 15.9473 4.6304 16 4.49784 16C4.36529 16 4.23816 15.9473 4.14443 15.8536C4.0507 15.7599 3.99805 15.6328 3.99805 15.5002Z" fill="#F6B83D"></path>
    <path fill-rule="evenodd" clip-rule="evenodd" d="M2.49902 13.0012C2.49902 12.8687 2.55168 12.7415 2.64541 12.6478C2.73914 12.5541 2.86627 12.5014 2.99882 12.5014H5.9976C6.13016 12.5014 6.25728 12.5541 6.35101 12.6478C6.44474 12.7415 6.4974 12.8687 6.4974 13.0012C6.4974 13.1338 6.44474 13.2609 6.35101 13.3546C6.25728 13.4484 6.13016 13.501 5.9976 13.501H2.99882C2.86627 13.501 2.73914 13.4484 2.64541 13.3546C2.55168 13.2609 2.49902 13.1338 2.49902 13.0012ZM11.4464 3.63653C10.8925 3.48016 10.3086 3.46285 9.74644 3.58614C9.18427 3.70942 8.66119 3.96949 8.22358 4.34329C7.78596 4.71709 7.44732 5.19308 7.23767 5.72906C7.02802 6.26505 6.95383 6.84448 7.02169 7.41599C7.0298 7.48134 7.02491 7.54765 7.00731 7.61111C6.98972 7.67457 6.95975 7.73392 6.91914 7.78576C6.87853 7.8376 6.82808 7.88091 6.77068 7.91318C6.71328 7.94546 6.65006 7.96608 6.58467 7.97385C6.51928 7.98162 6.45299 7.97639 6.38963 7.95846C6.32626 7.94054 6.26707 7.91026 6.21544 7.86938C6.16381 7.82851 6.12077 7.77783 6.08879 7.72026C6.05681 7.66269 6.03652 7.59938 6.02909 7.53394C5.91232 6.55036 6.12346 5.55573 6.62975 4.70441C7.13604 3.85309 7.90917 3.19268 8.82916 2.82567C9.74914 2.45865 10.7645 2.40556 11.7178 2.67462C12.671 2.94368 13.5088 3.51985 14.1011 4.31372C14.6935 5.1076 15.0072 6.07478 14.9936 7.06518C14.9801 8.05558 14.64 9.01381 14.0262 9.79119C13.4124 10.5686 12.5592 11.1216 11.5989 11.3645C10.6387 11.6074 9.6251 11.5265 8.7155 11.1345C8.65521 11.1085 8.60063 11.0709 8.55487 11.0239C8.50911 10.9768 8.47306 10.9212 8.44879 10.8602C8.39977 10.7371 8.40168 10.5995 8.4541 10.4777C8.50653 10.356 8.60517 10.2601 8.72834 10.211C8.8515 10.162 8.98909 10.1639 9.11084 10.2164C9.55056 10.4058 10.0245 10.503 10.5033 10.5019C10.9821 10.5008 11.4556 10.4014 11.8944 10.2099C12.3332 10.0184 12.7281 9.73891 13.0546 9.38864C13.381 9.03838 13.6321 8.62484 13.7922 8.17362C13.9524 7.72241 14.0182 7.24312 13.9857 6.76542C13.9531 6.28773 13.8229 5.82181 13.603 5.39649C13.3831 4.97118 13.0782 4.59553 12.7072 4.2928C12.3363 3.99007 11.9072 3.7667 11.4464 3.63653Z" fill="#F6B83D"></path>
    <path fill-rule="evenodd" clip-rule="evenodd" d="M13.3915 4.60812C13.2978 4.51439 13.2451 4.38729 13.2451 4.25476C13.2451 4.12223 13.2978 3.99513 13.3915 3.9014L17.1399 0.152926C17.186 0.10519 17.2412 0.0671139 17.3022 0.04092C17.3631 0.0147262 17.4287 0.000938867 17.4951 0.000362193C17.5614 -0.000214481 17.6273 0.0124314 17.6887 0.0375616C17.7501 0.0626918 17.8059 0.0998033 17.8528 0.146731C17.8998 0.193658 17.9369 0.249461 17.962 0.310884C17.9871 0.372307 17.9998 0.43812 17.9992 0.504483C17.9986 0.570846 17.9848 0.636429 17.9586 0.697406C17.9325 0.758384 17.8944 0.813534 17.8466 0.859638L14.0982 4.60812C14.0044 4.70181 13.8773 4.75445 13.7448 4.75445C13.6123 4.75445 13.4852 4.70181 13.3915 4.60812Z" fill="#F6B83D"></path>
    <path fill-rule="evenodd" clip-rule="evenodd" d="M17.455 3.50508C17.3893 3.50423 17.3245 3.49046 17.2642 3.46456C17.2039 3.43865 17.1493 3.40112 17.1035 3.35411C17.0577 3.30709 17.0216 3.25151 16.9972 3.19055C16.9729 3.12958 16.9608 3.06442 16.9617 2.99878L16.9867 1.01259L15.0005 1.03758C14.8679 1.0393 14.7401 0.988297 14.6452 0.895786C14.5502 0.803274 14.4959 0.676833 14.4942 0.544279C14.4925 0.411725 14.5435 0.283915 14.636 0.188966C14.7285 0.0940174 14.8549 0.0397076 14.9875 0.0379844L17.9993 0L17.9613 3.01178C17.9604 3.07741 17.9467 3.14224 17.9208 3.20255C17.8949 3.26287 17.8573 3.31749 17.8103 3.3633C17.7633 3.4091 17.7077 3.4452 17.6467 3.46953C17.5858 3.49386 17.5206 3.50594 17.455 3.50508Z" fill="#F6B83D"></path>
  </symbol>
  <symbol fill="none" xmlns="http://www.w3.org/2000/svg" viewBox="0 0 24 24" id="pagination-chev">
    <path d="M10.5999 12.71C10.5061 12.6171 10.4317 12.5065 10.381 12.3846C10.3302 12.2628 10.3041 12.1321 10.3041 12C10.3041 11.868 10.3302 11.7373 10.381 11.6155C10.4317 11.4936 10.5061 11.383 10.5999 11.29L15.1899 6.71003C15.2836 6.61707 15.358 6.50647 15.4088 6.38461C15.4595 6.26275 15.4857 6.13204 15.4857 6.00003C15.4857 5.86802 15.4595 5.73731 15.4088 5.61545C15.358 5.49359 15.2836 5.38299 15.1899 5.29003C15.0025 5.10378 14.749 4.99924 14.4849 4.99924C14.2207 4.99924 13.9672 5.10378 13.7799 5.29003L9.18986 9.88004C8.62806 10.4425 8.3125 11.205 8.3125 12C8.3125 12.795 8.62806 13.5575 9.18986 14.12L13.7799 18.7101C13.9661 18.8948 14.2175 18.999 14.4799 19.0001C14.6115 19.0008 14.7419 18.9756 14.8638 18.9258C14.9856 18.8761 15.0964 18.8027 15.1899 18.7101C15.2836 18.6171 15.358 18.5065 15.4088 18.3846C15.4595 18.2628 15.4857 18.1321 15.4857 18.0001C15.4857 17.868 15.4595 17.7373 15.4088 17.6155C15.358 17.4936 15.2836 17.383 15.1899 17.2901L10.5999 12.71Z" fill="#262626" fill-opacity="0.5"></path>
  </symbol>
  <symbol fill="none" xmlns="http://www.w3.org/2000/svg" viewBox="0 0 18 18" id="search">
    <path d="M8.25 14.25C11.5637 14.25 14.25 11.5637 14.25 8.25C14.25 4.93629 11.5637 2.25 8.25 2.25C4.93629 2.25 2.25 4.93629 2.25 8.25C2.25 11.5637 4.93629 14.25 8.25 14.25Z" stroke="#262626" stroke-width="2" stroke-linecap="round" stroke-linejoin="round"></path>
    <path d="M15.7508 15.75L12.4883 12.4875" stroke="#262626" stroke-width="2" stroke-linecap="round" stroke-linejoin="round"></path>
  </symbol>
  <symbol fill="none" xmlns="http://www.w3.org/2000/svg" viewBox="0 0 16 16" id="star">
    <g clip-path="url(#clip0_55857_2203)">
      <path d="M9.7998 4.69727C9.95896 4.99878 10.249 5.20939 10.585 5.26758L14.3848 5.92383L11.6973 8.69141C11.4597 8.93598 11.3489 9.27679 11.3975 9.61426L11.9463 13.4316L8.48535 11.7305L8.36816 11.6807C8.13008 11.5961 7.86992 11.5961 7.63184 11.6807L7.51465 11.7305L4.05273 13.4316L4.60254 9.61426C4.65107 9.27679 4.54025 8.93598 4.30273 8.69141L1.61426 5.92383L5.41504 5.26758C5.75098 5.20939 6.04104 4.99878 6.2002 4.69727L8 1.28613L9.7998 4.69727Z" fill="#FFC531" stroke="#FFC531" stroke-width="1.2"></path>
    </g>
    <defs>
      <clipPath id="clip0_55857_2203">
        <rect width="16" height="16" fill="white"></rect>
      </clipPath>
    </defs>
  </symbol>
  <symbol fill="none" xmlns="http://www.w3.org/2000/svg" viewBox="0 0 18 18" id="upload-cloud">
    <path d="M12 12L9 9L6 12" stroke="#F6B83D" stroke-width="1.3" stroke-linecap="round" stroke-linejoin="round"></path>
    <path d="M9 9V15.75" stroke="#F6B83D" stroke-width="1.3" stroke-linecap="round" stroke-linejoin="round"></path>
    <path d="M15.2925 13.7925C16.024 13.3937 16.6018 12.7627 16.9349 11.999C17.2679 11.2353 17.3371 10.3824 17.1316 9.57502C16.9261 8.76761 16.4576 8.05164 15.8 7.54009C15.1424 7.02854 14.3331 6.75055 13.5 6.75H12.555C12.328 5.87193 11.9048 5.05675 11.3174 4.36575C10.73 3.67474 9.9936 3.12589 9.16354 2.76046C8.33348 2.39503 7.43138 2.22252 6.52505 2.25592C5.61873 2.28931 4.73177 2.52773 3.93085 2.95325C3.12993 3.37878 2.4359 3.98033 1.90094 4.71269C1.36597 5.44505 1.00399 6.28916 0.842205 7.18155C0.680423 8.07394 0.723049 8.9914 0.96688 9.86495C1.21071 10.7385 1.6494 11.5454 2.24997 12.225" stroke="#F6B83D" stroke-width="1.3" stroke-linecap="round" stroke-linejoin="round"></path>
    <path d="M12 12L9 9L6 12" stroke="#F6B83D" stroke-width="1.3" stroke-linecap="round" stroke-linejoin="round"></path>
  </symbol>
  <symbol fill="none" xmlns="http://www.w3.org/2000/svg" viewBox="0 0 24 24" id="user">
    <path d="M11.9999 15C8.82977 15 6.01065 16.5306 4.21585 18.906C3.82956 19.4172 3.63641 19.6728 3.64273 20.0183C3.64761 20.2852 3.81521 20.6219 4.02522 20.7867C4.29704 21 4.67372 21 5.42708 21H18.5726C19.326 21 19.7027 21 19.9745 20.7867C20.1845 20.6219 20.3521 20.2852 20.357 20.0183C20.3633 19.6728 20.1701 19.4172 19.7839 18.906C17.9891 16.5306 15.1699 15 11.9999 15Z" fill="#F6B83D" stroke="#F6B83D" stroke-width="2" stroke-linecap="round" stroke-linejoin="round"></path>
    <path d="M12 12C14.4853 12 16.5 9.98528 16.5 7.5C16.5 5.01472 14.4853 3 12 3C9.51472 3 7.5 5.01472 7.5 7.5C7.5 9.98528 9.51472 12 12 12Z" fill="#F6B83D" stroke="#F6B83D" stroke-width="2" stroke-linecap="round" stroke-linejoin="round"></path>
  </symbol>

  <symbol fill="none" xmlns="http://www.w3.org/2000/svg" viewBox="0 0 272 272" id="ellipse">
    <path opacity="0.3" d="M1.51415 124.234C-0.93902 152.274 5.43349 180.379 19.7403 204.619C34.0472 228.859 55.5728 248.021 81.3063 259.424C107.04 270.828 135.694 273.903 163.261 268.219C190.829 262.535 215.93 248.377 235.054 227.725C254.178 207.072 266.369 180.959 269.921 153.037C273.473 125.115 268.209 96.781 254.865 71.9982C241.521 47.2154 220.764 27.2233 195.498 14.8183C170.232 2.41325 141.72 -1.78426 113.951 2.81289" stroke="url(#paint0_linear_55812_328)" stroke-width="2"></path>
    <defs>
      <linearGradient id="paint0_linear_55812_328" x1="124.234" y1="270.486" x2="-9.90683" y2="135.262" gradientUnits="userSpaceOnUse">
        <stop stop-color="white"></stop>
        <stop offset="1" stop-color="white" stop-opacity="0"></stop>
      </linearGradient>
    </defs>
  </symbol>
</svg>