<svg width="44" height="44" viewBox="0 0 44 44" fill="none" xmlns="http://www.w3.org/2000/svg">
<path d="M17.1875 6.875C15.7162 6.875 14.4348 7.711 13.6208 8.85225C12.8068 9.9935 12.375 11.4675 12.375 13.0625C12.375 14.6575 12.8068 16.1329 13.6208 17.2741C14.4348 18.4154 15.7162 19.25 17.1875 19.25C18.6588 19.25 19.9402 18.414 20.7542 17.2728C21.5683 16.1315 22 14.6575 22 13.0625C22 11.4675 21.5683 9.99213 20.7542 8.85087C19.9402 7.70962 18.6588 6.875 17.1875 6.875ZM22 13.0625C22 14.6575 22.4317 16.1329 23.2458 17.2741C24.0597 18.4154 25.3426 19.25 26.8125 19.25C28.2838 19.25 29.5653 18.414 30.3792 17.2728C31.1933 16.1315 31.625 14.6575 31.625 13.0625C31.625 11.4675 31.1933 9.99213 30.3792 8.85087C29.5653 7.70962 28.2838 6.875 26.8125 6.875C25.3412 6.875 24.0597 7.711 23.2458 8.85225C22.4317 9.9935 22 11.4675 22 13.0625ZM17.1875 9.625C17.6165 9.625 18.0895 9.8395 18.5213 10.4418C18.9475 11.0426 19.25 11.9996 19.25 13.0625C19.25 14.1254 18.9475 15.0838 18.5213 15.6833C18.0895 16.2855 17.6165 16.5 17.1875 16.5C16.7585 16.5 16.2855 16.2855 15.8537 15.6833C15.4275 15.0824 15.125 14.1254 15.125 13.0625C15.125 11.9996 15.4275 11.0413 15.8537 10.4418C16.2855 9.8395 16.7585 9.625 17.1875 9.625ZM26.8125 9.625C27.2415 9.625 27.7145 9.8395 28.1462 10.4418C28.5725 11.0426 28.875 11.9996 28.875 13.0625C28.875 14.1254 28.5725 15.0838 28.1462 15.6833C27.7145 16.2855 27.2415 16.5 26.8125 16.5C26.3835 16.5 25.9105 16.2855 25.4788 15.6833C25.0525 15.0824 24.75 14.1254 24.75 13.0625C24.75 11.9996 25.0525 11.0413 25.4788 10.4418C25.9105 9.8395 26.3835 9.625 26.8125 9.625ZM10.3125 16.5C8.84125 16.5 7.55975 17.336 6.74575 18.4773C5.93175 19.6185 5.5 21.0925 5.5 22.6875C5.5 24.2825 5.93175 25.7579 6.74575 26.8991C7.55975 28.0404 8.84125 28.875 10.3125 28.875C11.7838 28.875 13.0652 28.039 13.8792 26.8978C14.6932 25.7565 15.125 24.2825 15.125 22.6875C15.125 21.0925 14.6932 19.6171 13.8792 18.4759C13.0652 17.3346 11.7838 16.5 10.3125 16.5ZM33.6875 16.5C32.2162 16.5 30.9347 17.336 30.1208 18.4773C29.3067 19.6185 28.875 21.0925 28.875 22.6875C28.875 24.2825 29.3067 25.7579 30.1208 26.8991C30.9347 28.0404 32.2162 28.875 33.6875 28.875C35.1588 28.875 36.4403 28.039 37.2542 26.8978C38.0682 25.7565 38.5 24.2825 38.5 22.6875C38.5 21.0925 38.0682 19.6171 37.2542 18.4759C36.4403 17.3346 35.1588 16.5 33.6875 16.5ZM10.3125 19.25C10.7415 19.25 11.2145 19.4645 11.6463 20.0668C12.0725 20.6676 12.375 21.6246 12.375 22.6875C12.375 23.7504 12.0725 24.7088 11.6463 25.3083C11.2145 25.9105 10.7415 26.125 10.3125 26.125C9.8835 26.125 9.4105 25.9105 8.97875 25.3083C8.5525 24.7088 8.25 23.7504 8.25 22.6875C8.25 21.6246 8.5525 20.6663 8.97875 20.0668C9.4105 19.4645 9.8835 19.25 10.3125 19.25ZM33.6875 19.25C34.1165 19.25 34.5895 19.4645 35.0212 20.0668C35.4475 20.6676 35.75 21.6246 35.75 22.6875C35.75 23.7504 35.4475 24.7088 35.0212 25.3083C34.5895 25.9105 34.1165 26.125 33.6875 26.125C33.2585 26.125 32.7855 25.9105 32.3538 25.3083C31.9275 24.7074 31.625 23.7504 31.625 22.6875C31.625 21.6246 31.9275 20.6663 32.3538 20.0668C32.7855 19.4645 33.2585 19.25 33.6875 19.25ZM22 22C20.1671 22 18.8884 23.1894 18.26 24.2344C17.6357 25.2794 17.2507 26.1484 16.885 26.5114C16.6746 26.7273 15.3478 27.2264 13.9645 27.9318C13.2729 28.2851 12.5757 28.7568 11.9886 29.4786C11.3974 30.2005 10.9986 31.1974 10.9986 32.3153C10.9986 34.9553 13.1711 37.1278 15.8111 37.1278C17.0019 37.1278 18.2449 36.7428 19.4618 36.399C20.6841 36.047 22 35.75 22 35.75C22 35.75 23.3159 36.047 24.5355 36.3963C25.7537 36.74 26.9967 37.125 28.1875 37.125C30.8275 37.125 33 34.9525 33 32.3125C33 31.2208 32.5971 30.2225 32.01 29.5213C31.4256 28.8159 30.7216 28.38 30.0355 28.0156C28.6605 27.2869 27.3089 26.7094 27.1136 26.5114C26.7836 26.1855 26.4124 25.2876 25.7799 24.2371C25.1488 23.1825 23.8425 22 22 22ZM22 24.75C22.9075 24.75 23.0079 24.97 23.4163 25.652C23.8288 26.3326 24.1368 27.489 25.135 28.4886C26.2694 29.6161 27.7021 29.8636 28.7458 30.4191C29.2682 30.6969 29.667 30.9925 29.9062 31.2785C30.1441 31.5631 30.25 31.823 30.25 32.3098C30.25 33.4648 29.3425 34.3723 28.1875 34.3723C27.7887 34.3723 26.5045 34.0698 25.3083 33.726C24.112 33.3864 23.122 32.9973 22 32.9973C20.878 32.9973 19.888 33.3864 18.6917 33.726C17.4955 34.0698 16.2113 34.3723 15.8125 34.3723C14.6575 34.3723 13.75 33.4648 13.75 32.3098C13.75 31.7556 13.8655 31.471 14.0938 31.1905C14.322 30.9114 14.7428 30.635 15.2542 30.3751C16.2773 29.8526 17.7017 29.6464 18.8636 28.4845C19.8715 27.4711 20.174 26.2776 20.5824 25.6039C20.9839 24.9301 21.0801 24.7445 21.9986 24.7445L22 24.75Z" fill="#F6B83D"/>
</svg>
