<svg width="20" height="20" viewBox="0 0 20 20" fill="none" xmlns="http://www.w3.org/2000/svg">
<path d="M8.83387 10.5917C8.75576 10.5142 8.69377 10.4221 8.65146 10.3205C8.60915 10.219 8.58737 10.11 8.58737 10C8.58737 9.89001 8.60915 9.78109 8.65146 9.67954C8.69377 9.57799 8.75576 9.48582 8.83387 9.40835L12.6589 5.59168C12.737 5.51421 12.799 5.42204 12.8413 5.32049C12.8836 5.21894 12.9054 5.11002 12.9054 5.00001C12.9054 4.89 12.8836 4.78108 12.8413 4.67953C12.799 4.57798 12.737 4.48581 12.6589 4.40834C12.5027 4.25313 12.2915 4.16602 12.0714 4.16602C11.8512 4.16602 11.64 4.25313 11.4839 4.40834L7.65887 8.23335C7.1907 8.7021 6.92773 9.33752 6.92773 10C6.92773 10.6625 7.1907 11.2979 7.65887 11.7667L11.4839 15.5917C11.6391 15.7457 11.8486 15.8324 12.0672 15.8334C12.1769 15.834 12.2856 15.813 12.3871 15.7715C12.4887 15.73 12.581 15.6689 12.6589 15.5917C12.737 15.5142 12.799 15.4221 12.8413 15.3205C12.8836 15.219 12.9054 15.11 12.9054 15C12.9054 14.89 12.8836 14.7811 12.8413 14.6795C12.799 14.578 12.737 14.4858 12.6589 14.4084L8.83387 10.5917Z" fill="#262626" fill-opacity="0.5"/>
</svg>
