<svg width="18" height="18" viewBox="0 0 18 18" fill="none" xmlns="http://www.w3.org/2000/svg">
<path d="M12 12L9 9L6 12" stroke="#F6B83D" stroke-width="1.3" stroke-linecap="round" stroke-linejoin="round"/>
<path d="M9 9V15.75" stroke="#F6B83D" stroke-width="1.3" stroke-linecap="round" stroke-linejoin="round"/>
<path d="M15.2925 13.7925C16.024 13.3937 16.6018 12.7627 16.9349 11.999C17.2679 11.2353 17.3371 10.3824 17.1316 9.57502C16.9261 8.76761 16.4576 8.05164 15.8 7.54009C15.1424 7.02854 14.3331 6.75055 13.5 6.75H12.555C12.328 5.87193 11.9048 5.05675 11.3174 4.36575C10.73 3.67474 9.9936 3.12589 9.16354 2.76046C8.33348 2.39503 7.43138 2.22252 6.52505 2.25592C5.61873 2.28931 4.73177 2.52773 3.93085 2.95325C3.12993 3.37878 2.4359 3.98033 1.90094 4.71269C1.36597 5.44505 1.00399 6.28916 0.842205 7.18155C0.680423 8.07394 0.723049 8.9914 0.96688 9.86495C1.21071 10.7385 1.6494 11.5454 2.24997 12.225" stroke="#F6B83D" stroke-width="1.3" stroke-linecap="round" stroke-linejoin="round"/>
<path d="M12 12L9 9L6 12" stroke="#F6B83D" stroke-width="1.3" stroke-linecap="round" stroke-linejoin="round"/>
</svg>
